Coordinates
version=1
nRows=54
nColumns=12
inDegrees=yes

Units are S.I. units (second, meters, Newtons, ...)
Angles are in degrees

endheader
time	SC_y	SC_z	SC_x	AC_y	AC_z	AC_x	GH_y	GH_z	GH_yy	EL_x	PS_y
       0.0              -17.66          19.01          48.53          51.47         -17.85          15.49         -143.3         -4.159          131.0          20.24          120.5
   0.02168              -17.67          19.01          48.53          51.47         -17.85          15.49         -143.2          -4.15          131.1          20.25          120.5
   0.04336              -17.67          19.01          48.53          51.47         -17.84          15.49         -143.2          -4.14          131.1          20.26          120.5
   0.06504              -17.67          19.01          48.53          51.47         -17.84          15.49         -143.2          -4.13          131.1          20.28          120.5
   0.08672              -17.68          19.01          48.53          51.47         -17.83          15.49         -143.1         -4.119          131.1          20.29          120.5
    0.1084              -17.68          19.01          48.53          51.47         -17.83          15.48         -143.1         -4.107          131.1          20.31          120.5
    0.1301              -17.69          19.01          48.53          51.47         -17.82          15.48         -143.0         -4.094          131.1          20.33          120.5
    0.1518              -17.69          19.01          48.53          51.47         -17.82          15.48         -143.0         -4.081          131.1          20.35          120.5
    0.1734               -17.7          19.02          48.53          51.47         -17.81          15.48         -142.9         -4.067          131.1          20.37          120.5
    0.1951              -17.71          19.02          48.53          51.47         -17.81          15.47         -142.9         -4.051          131.1          20.39          120.4
    0.2168              -17.71          19.02          48.52          51.47          -17.8          15.47         -142.8         -4.035          131.1          20.41          120.4
    0.2385              -17.72          19.02          48.52          51.47         -17.79          15.47         -142.8         -4.017          131.1          20.44          120.4
    0.2602              -17.73          19.02          48.52          51.46         -17.79          15.46         -142.7         -3.998          131.1          20.47          120.4
    0.2818              -17.74          19.03          48.52          51.46         -17.78          15.46         -142.6         -3.977          131.1          20.49          120.4
    0.3035              -17.74          19.03          48.52          51.46         -17.77          15.46         -142.5         -3.954          131.1          20.53          120.4
    0.3252              -17.75          19.03          48.52          51.46         -17.76          15.45         -142.4          -3.93          131.2          20.56          120.4
    0.3469              -17.76          19.04          48.51          51.46         -17.75          15.45         -142.3         -3.904          131.2           20.6          120.4
    0.3686              -17.78          19.04          48.51          51.46         -17.74          15.44         -142.2         -3.875          131.2          20.64          120.4
    0.3902              -17.79          19.04          48.51          51.46         -17.72          15.44         -142.1         -3.843          131.2          20.68          120.4
    0.4119               -17.8          19.05          48.51          51.45         -17.71          15.43         -142.0         -3.809          131.2          20.73          120.4
    0.4336              -17.82          19.05           48.5          51.45         -17.69          15.42         -141.9         -3.771          131.2          20.79          120.3
    0.4553              -17.83          19.05           48.5          51.45         -17.68          15.42         -141.7         -3.729          131.3          20.84          120.3
     0.477              -17.85          19.06           48.5          51.45         -17.66          15.41         -141.5         -3.683          131.3          20.91          120.3
    0.4986              -17.87          19.07          48.49          51.45         -17.64           15.4         -141.3         -3.633          131.3          20.98          120.3
    0.5203               -17.9          19.07          48.49          51.44         -17.61          15.39         -141.1         -3.576          131.3          21.06          120.3
     0.542              -17.92          19.08          48.48          51.44         -17.59          15.38         -140.9         -3.513          131.4          21.15          120.2
    0.5637              -17.95          19.09          48.48          51.44         -17.56          15.37         -140.7         -3.442          131.4          21.25          120.2
    0.5854              -17.98           19.1          48.47          51.43         -17.53          15.35         -140.4         -3.362          131.4          21.36          120.2
     0.607              -18.02          19.11          48.46          51.43         -17.49          15.34         -140.0         -3.272          131.5          21.49          120.1
    0.6287              -18.06          19.12          48.45          51.42         -17.45          15.32         -139.7          -3.17          131.5          21.64          120.1
    0.6504              -18.11          19.13          48.44          51.41          -17.4           15.3         -139.2         -3.053          131.6           21.8          120.1
    0.6721              -18.16          19.15          48.43          51.41         -17.35          15.28         -138.7         -2.919          131.7          21.99          120.0
    0.6938              -18.22          19.16          48.42           51.4         -17.29          15.25         -138.2         -2.765          131.7          22.21          119.9
    0.7154              -18.29          19.18          48.41          51.39         -17.21          15.22         -137.5         -2.585          131.8          22.46          119.9
    0.7371              -18.38          19.21          48.39          51.38         -17.13          15.18         -136.8         -2.375          131.9          22.76          119.8
    0.7588              -18.48          19.24          48.37          51.37         -17.03          15.14         -135.8         -2.128          132.1          23.11          119.7
    0.7805               -18.6          19.27          48.34          51.35         -16.91          15.08         -134.8         -1.833          132.2          23.53          119.6
    0.8022              -18.74          19.31          48.32          51.33         -16.77          15.02         -133.5          -1.48          132.4          24.03          119.4
    0.8239              -18.91          19.36          48.28          51.31          -16.6          14.95         -131.9         -1.054          132.6          24.63          119.3
    0.8455              -19.12          19.42          48.24          51.28         -16.39          14.86         -130.0        -0.5321          132.8          25.37          119.1
    0.8672              -19.38          19.49          48.19          51.25         -16.13          14.74         -127.7         0.1115          133.2          26.28          118.8
    0.8889               -19.7          19.58          48.12           51.2          -15.8           14.6         -124.7          0.914          133.6          27.41          118.5
    0.9106               -20.1          19.69          48.04          51.15         -15.39          14.42         -121.0          1.925          134.1          28.84          118.1
    0.9323              -20.62          19.84          47.93          51.08         -14.87           14.2         -116.4           3.21          134.7          30.66          117.6
    0.9539              -21.28          20.02           47.8          50.99         -14.21          13.91         -110.3          4.855          135.5          32.99          117.0
    0.9756              -22.13          20.26          47.63          50.88         -13.36          13.54         -102.6          6.966          136.6          35.97          116.2
    0.9973              -23.21          20.57          47.41          50.74         -12.27          13.06         -92.78          9.662          137.9          39.79          115.1
     1.019              -24.57          20.95          47.13          50.55          -10.9          12.47         -80.39          13.05          139.6          44.58          113.8
     1.041              -26.23          21.42          46.79          50.33         -9.232          11.74          -65.3          17.18          141.6          50.43          112.2
     1.062              -28.15          21.96           46.4          50.08         -7.298           10.9          -47.8          21.97          144.0           57.2          110.3
     1.084              -30.23          22.54          45.98           49.8         -5.204          9.989         -28.86          27.16          146.6          64.53          108.3
     1.106              -32.31          23.13          45.55          49.53         -3.111          9.077         -9.917          32.34          149.2          71.87          106.3
     1.127              -34.23          23.67          45.16          49.27         -1.177          8.235          7.579          37.13          151.5          78.64          104.4
     1.149              -35.89          24.14          44.82          49.05         0.4914          7.509          22.67          41.27          153.6          84.49          102.8
